<svg id="visual" viewBox="0 0 900 600" width="900" height="600" xmlns="http://www.w3.org/2000/svg" xmlns:xlink="http://www.w3.org/1999/xlink" version="1.1"><rect x="0" y="0" width="900" height="600" fill="#FFFFFF"></rect><defs><linearGradient id="grad1_0" x1="33.3%" y1="100%" x2="100%" y2="0%"><stop offset="20%" stop-color="#ffffff" stop-opacity="1"></stop><stop offset="80%" stop-color="#ffffff" stop-opacity="1"></stop></linearGradient></defs><defs><linearGradient id="grad2_0" x1="0%" y1="100%" x2="66.7%" y2="0%"><stop offset="20%" stop-color="#ffffff" stop-opacity="1"></stop><stop offset="80%" stop-color="#ffffff" stop-opacity="1"></stop></linearGradient></defs><g transform="translate(900, 600)"><path d="M-324.5 0C-301.7 -36.4 -279 -72.8 -262.4 -108.7C-245.8 -144.6 -235.3 -180 -214.3 -214.3C-193.2 -248.5 -161.6 -281.6 -124.2 -299.8C-86.7 -318 -43.4 -321.2 0 -324.5L0 0Z" fill="#f0f8ff"></path></g><g transform="translate(0, 0)"><path d="M324.5 0C298.6 36.2 272.7 72.3 253.1 104.9C233.5 137.4 220.2 166.3 201.5 201.5C182.8 236.7 158.7 278.3 124.2 299.8C89.7 321.3 44.8 322.9 0 324.5L0 0Z" fill="#f0f8ff"></path></g></svg>